<svg xmlns="http://www.w3.org/2000/svg" width="32" height="32" fill="none" viewBox="0 0 32 32">
  <path fill="#11DBF7" d="M21 14a1 1 0 0 0-1 1v1a1 1 0 0 0 1 1h3a1 1 0 0 0 1-1v-1a1 1 0 0 0-1-1h-3Zm-7-3a1 1 0 0 1 1-1h1.5a1 1 0 0 1 1 1v1.5a1 1 0 0 1-1 1H15a1 1 0 0 1-1-1V11Zm1 6.5a1 1 0 0 0-1 1V20a1 1 0 0 0 1 1h1.5a1 1 0 0 0 1-1v-1.5a1 1 0 0 0-1-1H15Z"/>
  <path fill="#11DBF7" fill-rule="evenodd" d="M9 9a4 4 0 0 1 4-4h13a4 4 0 0 1 4 4v13a4 4 0 0 1-4 4H13a4 4 0 0 1-4-4V9Zm4-2h13a2 2 0 0 1 2 2v13a2 2 0 0 1-2 2H13a2 2 0 0 1-2-2V9a2 2 0 0 1 2-2Z" clip-rule="evenodd"/>
</svg>
