<svg xmlns="http://www.w3.org/2000/svg" width="16" height="16" fill="none" viewBox="0 0 16 16">
  <g clip-path="url(#a)">
    <path fill="#11DBF7" fill-rule="evenodd" d="M7.385 1a6.997 6.997 0 0 0-6.067 3.506l-.866-.5A7.997 7.997 0 0 1 7.385 0v1Zm7 7a6.965 6.965 0 0 0-1.077-3.733l.845-.534A7.965 7.965 0 0 1 15.385 8a7.967 7.967 0 0 1-.923 3.734l-.884-.468A6.967 6.967 0 0 0 14.385 8ZM1.192 11.266A6.999 6.999 0 0 0 7.385 15v1a7.999 7.999 0 0 1-7.077-4.266l.884-.468Z" clip-rule="evenodd"/>
    <path fill="#FF7575" fill-rule="evenodd" d="M7.5 13a5 5 0 1 0 0-10 5 5 0 0 0 0 10ZM4.72 5.22a.75.75 0 0 1 1.06 0L7.5 6.94l1.72-1.72a.75.75 0 1 1 1.06 1.06L8.56 8l1.72 1.72a.75.75 0 1 1-1.06 1.06L7.5 9.06l-1.72 1.72a.75.75 0 1 1-1.06-1.06L6.44 8 4.72 6.28a.75.75 0 0 1 0-1.06Z" clip-rule="evenodd"/>
  </g>
  <defs>
    <clipPath id="a">
      <path fill="#fff" d="M0 0h16v16H0z"/>
    </clipPath>
  </defs>
</svg>
