<svg xmlns="http://www.w3.org/2000/svg" width="16" height="16" fill="none" viewBox="0 0 16 16">
  <g clip-path="url(#a)">
    <path fill="#B8B8B8" fill-rule="evenodd" d="M8.97 3.443c.02.055.03.112.03.17v.924a.5.5 0 0 0 .75.432l.8-.462a.499.499 0 0 1 .617.094 5.029 5.029 0 0 1 1.11 1.924.516.516 0 0 1-.012.33.498.498 0 0 1-.216.25l-.8.462a.498.498 0 0 0 0 .866l.8.461a.5.5 0 0 1 .227.58c-.22.718-.6 1.375-1.11 1.925a.5.5 0 0 1-.616.094l-.8-.463a.487.487 0 0 0-.25-.067.502.502 0 0 0-.5.5v.925a.513.513 0 0 1-.11.311.5.5 0 0 1-.28.176 4.985 4.985 0 0 1-2.221 0 .5.5 0 0 1-.39-.489v-.923a.5.5 0 0 0-.749-.433l-.8.463a.499.499 0 0 1-.617-.094 5 5 0 0 1-1.11-1.924.5.5 0 0 1 .227-.58l.8-.462a.499.499 0 0 0 0-.866l-.799-.462a.5.5 0 0 1-.228-.58c.22-.716.6-1.375 1.11-1.924a.501.501 0 0 1 .616-.094l.801.462A.498.498 0 0 0 6 4.537v-.925a.5.5 0 0 1 .388-.487 4.998 4.998 0 0 1 2.223 0 .503.503 0 0 1 .359.318ZM5.998 6.68a2 2 0 1 1 3.003 2.643A2 2 0 0 1 5.998 6.68Z" clip-rule="evenodd"/>
    <path fill="#11DBF7" fill-rule="evenodd" d="M7.385 1a6.997 6.997 0 0 0-6.067 3.506l-.866-.5A7.997 7.997 0 0 1 7.385 0v1Zm7 7a6.965 6.965 0 0 0-1.077-3.733l.845-.534A7.965 7.965 0 0 1 15.385 8a7.967 7.967 0 0 1-.923 3.734l-.884-.468A6.967 6.967 0 0 0 14.385 8ZM1.192 11.266A6.999 6.999 0 0 0 7.385 15v1a7.999 7.999 0 0 1-7.077-4.266l.884-.468Z" clip-rule="evenodd"/>
  </g>
  <defs>
    <clipPath id="a">
      <path fill="#fff" d="M0 0h16v16H0z"/>
    </clipPath>
  </defs>
</svg>
