<svg xmlns="http://www.w3.org/2000/svg" width="16" height="16" fill="none" viewBox="0 0 16 16">
  <path fill="#A5F1E6" d="M9 1.5a.5.5 0 0 1 .5-.5h5a.5.5 0 0 1 .5.5v5a.5.5 0 0 1-1 0V2.707L8.354 8.354a.5.5 0 1 1-.708-.708L13.293 2H9.5a.5.5 0 0 1-.5-.5Z"/>
  <path fill="#11DBF7" d="M3 7a1 1 0 0 0-1 1v5a1 1 0 0 0 1 1h6a1 1 0 0 0 1-1v-2.5a.5.5 0 0 1 1 0V13a2 2 0 0 1-2 2H3a2 2 0 0 1-2-2V8a2 2 0 0 1 2-2h2.5a.5.5 0 0 1 0 1H3Z"/>
  <path fill="#11DBF7" d="M3.5 8a.5.5 0 0 0 0 1h1a.5.5 0 0 0 0-1h-1Zm0 2a.5.5 0 0 0 0 1h5a.5.5 0 0 0 0-1h-5ZM3 12.5a.5.5 0 0 1 .5-.5h3a.5.5 0 0 1 0 1h-3a.5.5 0 0 1-.5-.5Z"/>
</svg>
