<svg xmlns="http://www.w3.org/2000/svg" width="32" height="32" fill="none" viewBox="0 0 32 32">
  <path fill="#11DBF7" d="M9.171 10.988c1.745-2.8 4.901-4.665 8.504-4.665V4c-4.47 0-8.384 2.319-10.543 5.783l2.04 1.205Zm17.115.174A9.434 9.434 0 0 1 27.615 16c0 1.7-.45 3.294-1.238 4.68l2.087 1.126A11.705 11.705 0 0 0 30 16c0-2.184-.6-4.235-1.65-6l-2.064 1.162Zm-8.611 14.515c-3.677 0-6.89-1.944-8.61-4.84L7 22.002C9.13 25.585 13.112 28 17.675 28v-2.323Zm.482-14.809c1.903 0 3.572.982 4.5 2.46l2.076-1.236C23.38 9.94 20.943 8.5 18.157 8.5v2.368ZM12.886 16c0-.981.282-1.895.77-2.672l-2.075-1.236A7.324 7.324 0 0 0 10.454 16c0 1.372.379 2.661 1.042 3.77l2.102-1.192A5 5 0 0 1 12.886 16Zm9.883 2.485a5.292 5.292 0 0 1-4.612 2.647V23.5c2.901 0 5.427-1.563 6.739-3.865l-2.127-1.15Z"/>
</svg>
