<svg viewBox="0 0 32 32" xmlns="http://www.w3.org/2000/svg">
  <path d="m18.6 3.01a13 13 0 0 0-11.1 6.44l1.63 0.967a11.1 11.1 0 0 1 9.53-5.5v-1.91zm0.164 3.05-0.0039 0.602c-0.0229-1.64e-4 -0.0416-0.0137-0.0644-0.0137-3.49 0-6.41 1.99-8.04 4.81l-0.623-0.359a10.2 10.2 0 0 0-0.568 1.16 9.97 9.97 0 0 0 0.0234 7.64 10.1 10.1 0 0 0 0.545 1.11l0.623-0.359c1.62 2.82 4.55 4.81 8.04 4.81 0.0208 0 0.0379-0.0116 0.0586-0.0117v0.596h0.0586a10 10 0 0 0 8.53-4.97l-0.645-0.373c0.814-1.39 1.41-2.92 1.41-4.65s-0.594-3.26-1.41-4.65l0.652-0.375a10 10 0 0 0-8.58-4.97zm-0.0684 0.883c0.0221 0 0.0404 0.0116 0.0625 0.0117l-0.0039 0.576a8.56 8.56 0 0 1 3.94 1.07l-12.5 7.19a8.47 8.47 0 0 1 0.586-2.97 8.61 8.61 0 0 1 0.48-0.988l-0.4-0.23c1.57-2.74 4.41-4.66 7.79-4.66zm4.18 1.9v14.4l-12.5-7.21zm0.293 0.0254a8.56 8.56 0 0 1 2.91 2.89l0.373-0.215c0.788 1.35 1.36 2.83 1.36 4.51s-0.573 3.16-1.36 4.51l-0.373-0.215a8.56 8.56 0 0 1-2.91 2.89zm6.85 0.682-1.65 0.955a11.3 11.3 0 0 1 0.596 1.22v0.0078a11 11 0 0 1 0.0254 8.47 11.2 11.2 0 0 1-0.623 1.28l1.65 0.955a13.1 13.1 0 0 0 0.738-1.51 13 13 0 0 0-0.0312-9.94 13.2 13.2 0 0 0-0.705-1.44zm-19.8 6.76 12.5 7.2a8.56 8.56 0 0 1-3.94 1.07v0.576c-0.0208 1.39e-4 -0.0378 0.0117-0.0586 0.0117-3.38 0-6.21-1.92-7.79-4.66l0.4-0.23a8.67 8.67 0 0 1-0.459-0.939l-0.0039 0.0098a8.47 8.47 0 0 1-0.619-3.04zm-1.09 5.27-1.66 0.955a13 13 0 0 0 11.2 6.44l0.0078-1.9a11.1 11.1 0 0 1-9.53-5.5z" fill="#11dbf7"/>
</svg>
