<svg xmlns="http://www.w3.org/2000/svg" width="32" height="32" fill="none" viewBox="0 0 32 32">
  <path fill="#D38CE5" d="M24.685 5.144a.209.209 0 0 0-.397 0l-1.303 3.94-3.871 1.333a.21.21 0 0 0 0 .399l3.871 1.332 1.303 3.94a.209.209 0 0 0 .397 0l1.302-3.94 3.872-1.332a.21.21 0 0 0 0-.399l-3.872-1.332-1.302-3.941Zm-10.653 6.317a.313.313 0 0 0-.595 0l-1.82 5.5-5.405 1.863a.316.316 0 0 0 0 .597l5.404 1.863 1.821 5.5c.095.288.5.288.595 0l1.821-5.5 5.404-1.863a.316.316 0 0 0 0-.597l-5.404-1.863-1.82-5.5Z"/>
</svg>
