<svg xmlns="http://www.w3.org/2000/svg" width="16" height="16" fill="none" viewBox="0 0 16 16">
  <g clip-path="url(#a)">
    <path fill="#11DBF7" fill-rule="evenodd" d="M7.385 1a6.997 6.997 0 0 0-6.067 3.506l-.866-.5A7.997 7.997 0 0 1 7.385 0v1Zm7 7a6.965 6.965 0 0 0-1.077-3.733l.845-.534A7.965 7.965 0 0 1 15.385 8a7.967 7.967 0 0 1-.923 3.734l-.884-.468A6.967 6.967 0 0 0 14.385 8ZM1.192 11.266A6.999 6.999 0 0 0 7.385 15v1a7.999 7.999 0 0 1-7.077-4.266l.884-.468Z" clip-rule="evenodd"/>
    <path fill="#22CE52" d="M8.25 12.944a5.001 5.001 0 1 0-1.5 0V6.601L4.98 8.076a.75.75 0 0 1-.96-1.152l3-2.5a.75.75 0 0 1 .96 0l3 2.5a.75.75 0 1 1-.96 1.152L8.25 6.601v6.343Z"/>
    <path fill="#22CE52" d="M7.5 5.976 7.528 6h-.056l.028-.024Z"/>
  </g>
  <defs>
    <clipPath id="a">
      <path fill="#fff" d="M0 0h16v16H0z"/>
    </clipPath>
  </defs>
</svg>
